# xmcd CD database file
#
# Track frame offsets:
#	150
#	20633
#	41310
#	64566
#	81082
#	88780
#	99210
#	115908
#	131095
#	150276
#	164628
#	184668
#	203481
#	219588
#	236567
#	260746
#	282535
#	295829
#	316400
#	330956
#
# Disc length: 4735 seconds
#
# Revision: 5
# Processed by: cddbd v1.5.1PL0 Copyright (c) Steve Scherf et al.
# Submitted via: CDex 1.51
#
DISCID=15127d14
DTITLE=Various Artist - Martin Scorsese Presents The Blues - The Soul Of A Man (OST)
DYEAR=2003
DGENRE=Blues
TTITLE0=Cassandra Wilson - Vietnam Blues
TTITLE1=Eagle-Eye Cherry, Vernon Reid and James Blood Ulmer - Down in Mississippi
TTITLE2=Lucinda Williams - Hard Time Killing Floor Blues
TTITLE3=Lou Reed - Look Down the Road
TTITLE4=Nick Cave and The Bad Seeds - I  Feel So Good
TTITLE5=Cassandra Wilson - Slow Down
TTITLE6=T Bone Burnett - Don't Dog Your Woman
TTITLE7=Los Lobos - Voodoo Music
TTITLE8=John Mayall and The Bluesbreakers - The Death of J.B. Lenoir
TTITLE9=J.B. Lenoir - Alabama
TTITLE10=Shemika Copeland - God's Word
TTITLE11=Alvin Youngblood Hart - Illinois Blues
TTITLE12=Beck - I'm So Glad
TTITLE13=The Jon Spencer Blues Explosion - Special Rider Blues
TTITLE14=Marc Ribot - Dark Was The Night, Cold Was The Ground
TTITLE15=Bonnie Raitt - Devil Got My Woman
TTITLE16=Skip James - Crow Jane
TTITLE17=Garland Jeffrreys - Washington DC Hospital Center Blues
TTITLE18=Blind Willie Johnson - Soul of A Man
TTITLE19=Lou Reed - See That My Grave Is Kept Clean
EXTD=Martin Scorsese Presents The Blues YEAR: 2003
EXTT0=5/15/2002
EXTT1=5/15/2002
EXTT2=11/9/2001
EXTT3=11/8/2001
EXTT4=5/28/2002
EXTT5=5/15/2002
EXTT6=1/15/2002
EXTT7=1/16/2002
EXTT8=7/11-12/1967
EXTT9=5/5/1965
EXTT10=1/14/2002
EXTT11=11/8/2001
EXTT12=7/20/2002
EXTT13=11/9/2001
EXTT14=11/8/2001
EXTT15=1/16/2002
EXTT16=1964
EXTT17=11/8/2001
EXTT18=4/20/1930
EXTT19=11/8/2001
PLAYORDER=
